<svg width="100%" height="100%" viewBox="0 0 30 30" style="fill-rule:evenodd;clip-rule:evenodd;stroke-linejoin:round;stroke-miterlimit:2;">
    <g id="Layer2" transform="matrix(0.0624602,0,0,0.0624602,-0.605513,-0.624602)">
        <g transform="matrix(-1.28246,-1.57056e-16,1.57056e-16,-1.28246,445.731,695.499)">
            <path d="M134.505,262.747C134.505,206.04 180.545,160 237.253,160C293.96,160 340,206.04 340,262.747C340,319.455 293.96,365.495 237.253,365.495L237.253,328.799C273.708,328.799 303.304,299.203 303.304,262.747C303.304,226.292 273.708,196.696 237.253,196.696C200.797,196.696 171.201,226.292 171.201,262.747L134.505,262.747Z" style="fill:rgb(242,242,242);"/>
        </g>
        <g transform="matrix(1.28246,3.14112e-16,-3.14112e-16,1.28246,53.9632,-195.194)">
            <path d="M134.505,262.747C134.505,206.04 180.545,160 237.253,160C293.96,160 340,206.04 340,262.747C340,319.455 293.96,365.495 237.253,365.495L237.253,328.799C273.708,328.799 303.304,299.203 303.304,262.747C303.304,226.292 273.708,196.696 237.253,196.696C200.797,196.696 171.201,226.292 171.201,262.747L134.505,262.747Z" style="fill:rgb(242,242,242);"/>
        </g>
        <g transform="matrix(0.941212,0,0,0.941212,19.3941,10)">
            <path d="M269.992,230.008L350,230.008L350,280.298L269.992,280.298L269.992,360L219.702,360L219.702,280.298L140,280.298L140,230.008L219.702,230.008L219.702,150L269.992,150L269.992,230.008Z" style="fill:rgb(242,242,242);fill-rule:nonzero;"/>
        </g>
    </g>
</svg>
